<svg width="37" height="37" viewBox="0 0 37 37" fill="none" xmlns="http://www.w3.org/2000/svg">
<path d="M32.4831 30.0986C34.368 27.8307 35.679 25.1422 36.3051 22.2606C36.9312 19.3789 36.8541 16.3888 36.0802 13.5433C35.3063 10.6977 33.8585 8.08039 31.8592 5.91272C29.8598 3.74506 27.3678 2.09083 24.594 1.08995C21.8201 0.0890811 18.846 -0.228984 15.9232 0.162666C13.0004 0.554316 10.215 1.64416 7.80244 3.34C5.38993 5.03584 3.42136 7.28779 2.06324 9.90534C0.705124 12.5229 -0.0025759 15.4291 7.04504e-06 18.378C0.000998211 22.6648 1.51167 26.8144 4.26694 30.0986L4.24069 30.1209C4.33257 30.2311 4.43757 30.3256 4.53207 30.4346C4.65019 30.5698 4.77751 30.6971 4.89957 30.8283C5.26707 31.2273 5.64507 31.6106 6.04144 31.9702C6.16219 32.0805 6.28688 32.1828 6.40894 32.2878C6.82894 32.6501 7.26076 32.994 7.70832 33.3142C7.76607 33.3536 7.81857 33.4048 7.87632 33.4455V33.4297C10.9503 35.5929 14.6175 36.7539 18.3763 36.7539C22.1352 36.7539 25.8023 35.5929 28.8763 33.4297V33.4455C28.9341 33.4048 28.9853 33.3536 29.0443 33.3142C29.4906 32.9926 29.9237 32.6501 30.3437 32.2878C30.4658 32.1828 30.5904 32.0792 30.7112 31.9702C31.1076 31.6093 31.4856 31.2273 31.8531 30.8283C31.9751 30.6971 32.1011 30.5698 32.2206 30.4346C32.3138 30.3256 32.4201 30.2311 32.5119 30.1196L32.4831 30.0986ZM18.375 7.87796C19.5432 7.87796 20.6851 8.22436 21.6563 8.87334C22.6276 9.52233 23.3846 10.4448 23.8317 11.524C24.2787 12.6032 24.3957 13.7908 24.1678 14.9365C23.9399 16.0822 23.3774 17.1346 22.5514 17.9606C21.7254 18.7866 20.673 19.3491 19.5273 19.577C18.3816 19.8049 17.194 19.6879 16.1148 19.2409C15.0356 18.7938 14.1131 18.0368 13.4641 17.0655C12.8152 16.0943 12.4688 14.9524 12.4688 13.7842C12.4688 12.2178 13.091 10.7155 14.1987 9.60786C15.3063 8.50023 16.8086 7.87796 18.375 7.87796ZM7.88419 30.0986C7.90696 28.3752 8.60731 26.7301 9.83373 25.5192C11.0601 24.3083 12.714 23.6288 14.4375 23.628H22.3125C24.036 23.6288 25.6899 24.3083 26.9163 25.5192C28.1427 26.7301 28.8431 28.3752 28.8658 30.0986C25.9873 32.6925 22.2498 34.1281 18.375 34.1281C14.5002 34.1281 10.7627 32.6925 7.88419 30.0986Z" fill="black"/>
</svg>
